<?xml version="1.0" encoding="utf-8" standalone="no"?>
<!DOCTYPE svg PUBLIC "-//W3C//DTD SVG 1.1//EN"
  "http://www.w3.org/Graphics/SVG/1.1/DTD/svg11.dtd">
<!-- Created with matplotlib (http://matplotlib.org/) -->
<svg height="88pt" version="1.1" viewBox="0 0 144 88" width="144pt" xmlns="http://www.w3.org/2000/svg" xmlns:xlink="http://www.w3.org/1999/xlink">
 <defs>
  <style type="text/css">
*{stroke-linecap:butt;stroke-linejoin:round;}
  </style>
 </defs>
 <g id="figure_1">
  <g id="patch_1">
   <path d="M 0 88.56 
L 144 88.56 
L 144 0 
L 0 0 
z
" style="fill:#ffffff;"/>
  </g>
  <g id="axes_1">
   <g id="patch_2">
    <path d="M 18 77.49 
L 129.6 77.49 
L 129.6 10.6272 
L 18 10.6272 
z
" style="fill:#ffffff;"/>
   </g>
   <g id="matplotlib.axis_1">
    <g id="xtick_1">
     <g id="line2d_1">
      <defs>
       <path d="M 0 0 
L 0 3.5 
" id="m7be59f9171" style="stroke:#000000;stroke-width:0.8;"/>
      </defs>
      <g>
       <use style="stroke:#000000;stroke-width:0.8;" x="18" xlink:href="#m7be59f9171" y="82.49"/>
      </g>
     </g>
     <g id="text_1">
      <text style="font-family:Arial;font-size:6px;font-style:normal;font-weight:400;text-anchor:middle;" transform="rotate(-0, 18, 93.784688)" x="18" y="93.784688">0</text>
     </g>
    </g>
    <g id="xtick_2">
     <g id="line2d_2">
      <g>
       <use style="stroke:#000000;stroke-width:0.8;" x="45.9" xlink:href="#m7be59f9171" y="82.49"/>
      </g>
     </g>
     <g id="text_2">
      <text style="font-family:Arial;font-size:6px;font-style:normal;font-weight:400;text-anchor:middle;" transform="rotate(-0, 45.9, 93.784688)" x="45.9" y="93.784688">25</text>
     </g>
    </g>
    <g id="xtick_3">
     <g id="line2d_3">
      <g>
       <use style="stroke:#000000;stroke-width:0.8;" x="73.8" xlink:href="#m7be59f9171" y="82.49"/>
      </g>
     </g>
     <g id="text_3">
      <text style="font-family:Arial;font-size:6px;font-style:normal;font-weight:400;text-anchor:middle;" transform="rotate(-0, 73.8, 93.784688)" x="73.8" y="93.784688">50</text>
     </g>
    </g>
    <g id="xtick_4">
     <g id="line2d_4">
      <g>
       <use style="stroke:#000000;stroke-width:0.8;" x="101.7" xlink:href="#m7be59f9171" y="82.49"/>
      </g>
     </g>
     <g id="text_4">
      <text style="font-family:Arial;font-size:6px;font-style:normal;font-weight:400;text-anchor:middle;" transform="rotate(-0, 101.7, 93.784688)" x="101.7" y="93.784688">75</text>
     </g>
    </g>
    <g id="xtick_5">
     <g id="line2d_5">
      <g>
       <use style="stroke:#000000;stroke-width:0.8;" x="129.6" xlink:href="#m7be59f9171" y="82.49"/>
      </g>
     </g>
     <g id="text_5">
      <text style="font-family:Arial;font-size:6px;font-style:normal;font-weight:400;text-anchor:middle;" transform="rotate(-0, 129.6, 93.784688)" x="129.6" y="93.784688">100</text>
     </g>
    </g>
    <g id="text_6">
     <text style="font-family:Arial;font-size:8px;font-style:normal;font-weight:400;text-anchor:middle;" transform="rotate(-0, 73.8, 104.800938)" x="73.8" y="104.800938">Distance between two stall sites (codons)</text>
    </g>
   </g>
   <g id="matplotlib.axis_2">
    <g id="ytick_1">
     <g id="line2d_6">
      <defs>
       <path d="M 0 0 
L -3.5 0 
" id="mced632017b" style="stroke:#000000;stroke-width:0.8;"/>
      </defs>
      <g>
       <use style="stroke:#000000;stroke-width:0.8;" x="13" xlink:href="#mced632017b" y="77.49"/>
      </g>
     </g>
     <g id="text_7">
      <text style="font-family:Arial;font-size:6px;font-style:normal;font-weight:400;text-anchor:end;" transform="rotate(-0, 6, 79.637344)" x="6" y="79.637344">0.0</text>
     </g>
    </g>
    <g id="ytick_2">
     <g id="line2d_7">
      <g>
       <use style="stroke:#000000;stroke-width:0.8;" x="13" xlink:href="#mced632017b" y="50.74488"/>
      </g>
     </g>
     <g id="text_8">
      <text style="font-family:Arial;font-size:6px;font-style:normal;font-weight:400;text-anchor:end;" transform="rotate(-0, 6, 52.892224)" x="6" y="52.892224">0.1</text>
     </g>
    </g>
    <g id="ytick_3">
     <g id="line2d_8">
      <g>
       <use style="stroke:#000000;stroke-width:0.8;" x="13" xlink:href="#mced632017b" y="23.99976"/>
      </g>
     </g>
     <g id="text_9">
      <text style="font-family:Arial;font-size:6px;font-style:normal;font-weight:400;text-anchor:end;" transform="rotate(-0, 6, 26.147104)" x="6" y="26.147104">0.2</text>
     </g>
    </g>
    <g id="text_10">
     <text style="font-family:Arial;font-size:8px;font-style:normal;font-weight:400;" transform="translate(-16.696 82.519225)rotate(-90)">Protein synthesis rate</text>
     <text style="font-family:Arial;font-size:8px;font-style:normal;font-weight:400;" transform="translate(-8.02375 86.73985)rotate(-90)">(Relative to no stall site)</text>
    </g>
   </g>
   <g id="line2d_9">
    <path clip-path="url(#p61e1f8a34f)" d="M 21.348 46.385425 
L 22.464 47.107544 
L 23.58 46.599386 
L 24.696 46.626132 
L 25.812 47.321505 
L 26.928 47.695936 
L 28.044 47.34825 
L 29.16 47.027308 
L 30.276 37.051379 
L 31.392 37.746752 
L 32.508 37.024633 
L 33.624 37.880477 
L 34.74 36.008319 
L 35.856 37.104869 
L 36.972 36.596712 
L 38.088 38.201419 
L 39.204 37.532791 
L 40.32 37.826987 
L 41.436 33.440787 
L 42.552 32.718669 
L 43.668 34.13616 
L 44.784 34.109415 
L 45.9 33.066356 
L 47.016 33.387297 
L 48.132 32.852395 
L 49.248 30.73953 
L 50.364 33.387297 
L 51.48 32.87914 
L 52.596 29.963922 
L 53.712 29.295294 
L 54.828 28.787136 
L 55.944 29.910432 
L 57.06 30.953491 
L 58.176 30.177883 
L 59.292 29.402274 
L 60.408 28.733646 
L 61.524 28.787136 
L 62.64 28.787136 
L 63.756 27.877802 
L 64.872 28.332469 
L 65.988 28.145254 
L 67.104 28.225489 
L 68.22 28.171999 
L 69.336 27.556861 
L 70.452 26.807998 
L 71.568 27.530116 
L 72.684 28.653411 
L 73.8 28.920862 
L 74.916 25.925409 
L 76.032 26.567292 
L 77.148 26.433566 
L 78.264 28.252234 
L 79.38 26.219605 
L 80.496 26.701017 
L 81.612 28.011528 
L 82.728 26.29984 
L 83.844 26.29984 
L 84.96 28.305724 
L 86.076 25.016075 
L 87.192 24.828859 
L 88.308 25.925409 
L 89.424 25.417251 
L 90.54 25.497487 
L 91.656 25.684703 
L 92.772 23.94627 
L 93.888 22.662504 
L 95.004 24.882349 
L 96.12 24.962584 
L 97.236 26.19286 
L 98.352 26.19286 
L 99.468 24.320701 
L 100.584 25.657957 
L 101.7 24.534662 
L 102.816 24.962584 
L 103.932 23.491603 
L 105.048 26.29984 
L 106.164 25.577722 
L 107.28 24.588153 
L 108.396 24.855604 
L 109.512 22.582269 
L 110.628 23.197406 
L 111.744 23.89278 
L 112.86 25.176545 
L 113.976 23.063681 
L 115.092 23.143916 
L 116.208 24.561408 
L 117.324 24.05325 
L 118.44 22.9567 
L 119.556 23.143916 
L 120.672 23.705564 
L 121.788 25.04282 
L 122.904 22.341563 
L 124.02 24.05325 
L 125.136 22.127602 
L 126.252 22.207837 
" style="fill:none;opacity:0.6;stroke:#008000;stroke-linecap:square;stroke-width:2;"/>
   </g>
   <g id="line2d_10">
    <path clip-path="url(#p61e1f8a34f)" d="M 21.348 66.765207 
L 22.464 65.187245 
L 23.58 64.786068 
L 24.696 65.187245 
L 25.812 65.347716 
L 26.928 66.203559 
L 28.044 64.652342 
L 29.16 65.347716 
L 30.276 40.956166 
L 31.392 40.448009 
L 32.508 41.705029 
L 33.624 41.491068 
L 34.74 40.60848 
L 35.856 39.61891 
L 36.972 40.71546 
L 38.088 40.448009 
L 39.204 40.902676 
L 40.32 40.260793 
L 41.436 41.892245 
L 42.552 40.448009 
L 43.668 40.207303 
L 44.784 40.635225 
L 45.9 42.239932 
L 47.016 41.410833 
L 48.132 40.581734 
L 49.248 41.250362 
L 50.364 39.6724 
L 51.48 42.025971 
L 52.596 40.956166 
L 53.712 41.009656 
L 54.828 40.180558 
L 55.944 40.474754 
L 57.06 41.838755 
L 58.176 40.153812 
L 59.292 40.501499 
L 60.408 41.009656 
L 61.524 40.448009 
L 62.64 41.223617 
L 63.756 42.587618 
L 64.872 40.635225 
L 65.988 42.106206 
L 67.104 41.517814 
L 68.22 40.207303 
L 69.336 40.982911 
L 70.452 40.234048 
L 71.568 39.137498 
L 72.684 40.581734 
L 73.8 39.993342 
L 74.916 39.378204 
L 76.032 41.196872 
L 77.148 40.234048 
L 78.264 40.180558 
L 79.38 41.410833 
L 80.496 42.239932 
L 81.612 41.036401 
L 82.728 39.806126 
L 83.844 39.725891 
L 84.96 40.314283 
L 86.076 41.705029 
L 87.192 40.394519 
L 88.308 41.116637 
L 89.424 40.341028 
L 90.54 40.929421 
L 91.656 40.341028 
L 92.772 41.624794 
L 93.888 40.60848 
L 95.004 41.598049 
L 96.12 38.709576 
L 97.236 40.474754 
L 98.352 40.474754 
L 99.468 40.394519 
L 100.584 41.598049 
L 101.7 40.82244 
L 102.816 40.795695 
L 103.932 41.223617 
L 105.048 40.501499 
L 106.164 39.485184 
L 107.28 41.009656 
L 108.396 40.153812 
L 109.512 39.51193 
L 110.628 41.063147 
L 111.744 40.448009 
L 112.86 41.571304 
L 113.976 39.645655 
L 115.092 42.266677 
L 116.208 41.036401 
L 117.324 41.678284 
L 118.44 41.624794 
L 119.556 40.66197 
L 120.672 41.785265 
L 121.788 41.705029 
L 122.904 39.56542 
L 124.02 42.052716 
L 125.136 41.303853 
L 126.252 39.859616 
" style="fill:none;opacity:0.6;stroke:#ff0000;stroke-linecap:square;stroke-width:2;"/>
   </g>
   <g id="line2d_11">
    <path clip-path="url(#p61e1f8a34f)" d="M 21.348 64.545362 
L 22.464 64.090695 
L 23.58 64.304656 
L 24.696 64.197675 
L 25.812 63.234851 
L 26.928 64.705833 
L 28.044 64.251166 
L 29.16 64.17093 
L 30.276 65.427951 
L 31.392 64.17093 
L 32.508 64.705833 
L 33.624 63.288341 
L 34.74 64.652342 
L 35.856 64.411636 
L 36.972 64.919794 
L 38.088 63.769753 
L 39.204 64.411636 
L 40.32 63.689518 
L 41.436 65.21399 
L 42.552 64.465127 
L 43.668 64.17093 
L 44.784 63.154616 
L 45.9 63.315086 
L 47.016 64.545362 
L 48.132 64.465127 
L 49.248 63.208106 
L 50.364 63.448812 
L 51.48 65.561676 
L 52.596 65.026774 
L 53.712 63.903479 
L 54.828 64.465127 
L 55.944 63.956969 
L 57.06 64.705833 
L 58.176 64.277911 
L 59.292 64.866303 
L 60.408 64.491872 
L 61.524 64.144185 
L 62.64 65.294225 
L 63.756 64.732578 
L 64.872 65.401206 
L 65.988 63.956969 
L 67.104 64.01046 
L 68.22 64.812813 
L 69.336 64.197675 
L 70.452 64.465127 
L 71.568 64.946539 
L 72.684 63.609283 
L 73.8 65.668657 
L 74.916 62.646458 
L 76.032 63.636028 
L 77.148 64.545362 
L 78.264 64.277911 
L 79.38 63.662773 
L 80.496 63.127871 
L 81.612 64.197675 
L 82.728 62.860419 
L 83.844 64.438381 
L 84.96 64.598852 
L 86.076 64.465127 
L 87.192 64.277911 
L 88.308 64.919794 
L 89.424 64.438381 
L 90.54 64.144185 
L 91.656 64.277911 
L 92.772 64.572107 
L 93.888 63.395322 
L 95.004 64.331401 
L 96.12 64.251166 
L 97.236 64.17093 
L 98.352 64.22442 
L 99.468 64.06395 
L 100.584 64.759323 
L 101.7 64.652342 
L 102.816 63.529047 
L 103.932 64.973284 
L 105.048 64.438381 
L 106.164 64.384891 
L 107.28 64.705833 
L 108.396 63.609283 
L 109.512 63.796499 
L 110.628 64.304656 
L 111.744 63.288341 
L 112.86 64.06395 
L 113.976 65.026774 
L 115.092 63.555792 
L 116.208 63.502302 
L 117.324 63.529047 
L 118.44 63.502302 
L 119.556 63.796499 
L 120.672 64.839558 
L 121.788 63.234851 
L 122.904 63.047635 
L 124.02 63.903479 
L 125.136 63.609283 
L 126.252 62.860419 
" style="fill:none;opacity:0.6;stroke:#0000ff;stroke-linecap:square;stroke-width:2;"/>
   </g>
   <g id="patch_3">
    <path d="M 13 77.49 
L 13 10.6272 
" style="fill:none;stroke:#000000;stroke-linecap:square;stroke-linejoin:miter;stroke-width:0.8;"/>
   </g>
   <g id="patch_4">
    <path d="M 129.6 77.49 
L 129.6 10.6272 
" style="fill:none;"/>
   </g>
   <g id="patch_5">
    <path d="M 18 82.49 
L 129.6 82.49 
" style="fill:none;stroke:#000000;stroke-linecap:square;stroke-linejoin:miter;stroke-width:0.8;"/>
   </g>
   <g id="patch_6">
    <path d="M 18 10.6272 
L 129.6 10.6272 
" style="fill:none;"/>
   </g>
  </g>
 </g>
 <defs>
  <clipPath id="p61e1f8a34f">
   <rect height="66.8628" width="111.6" x="18" y="10.6272"/>
  </clipPath>
 </defs>
</svg>
