<?xml version="1.0" encoding="utf-8" standalone="no"?>
<!DOCTYPE svg PUBLIC "-//W3C//DTD SVG 1.1//EN"
  "http://www.w3.org/Graphics/SVG/1.1/DTD/svg11.dtd">
<!-- Created with matplotlib (http://matplotlib.org/) -->
<svg height="576pt" version="1.1" viewBox="0 0 648 576" width="648pt" xmlns="http://www.w3.org/2000/svg" xmlns:xlink="http://www.w3.org/1999/xlink">
 <defs>
  <style type="text/css">
*{stroke-linecap:butt;stroke-linejoin:round;}
  </style>
 </defs>
 <g id="figure_1">
  <g id="patch_1">
   <path d="M 0 576 
L 648 576 
L 648 0 
L 0 0 
z
" style="fill:#ffffff;"/>
  </g>
  <g id="axes_1">
   <g id="patch_2">
    <path d="M 81 156.096 
L 181.44 156.096 
L 181.44 69.12 
L 81 69.12 
z
" style="fill:#ffffff;"/>
   </g>
   <g id="matplotlib.axis_1">
    <g id="xtick_1">
     <g id="line2d_1">
      <defs>
       <path d="M 0 0 
L 0 3.5 
" id="ma61f27120d" style="stroke:#000000;stroke-width:0.8;"/>
      </defs>
      <g>
       <use style="stroke:#000000;stroke-width:0.8;" x="92.945553" xlink:href="#ma61f27120d" y="161.096"/>
      </g>
     </g>
     <g id="text_1">
      <text style="font-family:Arial;font-size:6px;font-style:normal;font-weight:400;text-anchor:middle;" transform="rotate(-0, 92.945553, 172.390688)" x="92.945553" y="172.390688">0.4</text>
     </g>
    </g>
    <g id="xtick_2">
     <g id="line2d_2">
      <g>
       <use style="stroke:#000000;stroke-width:0.8;" x="116.499059" xlink:href="#ma61f27120d" y="161.096"/>
      </g>
     </g>
     <g id="text_2">
      <text style="font-family:Arial;font-size:6px;font-style:normal;font-weight:400;text-anchor:middle;" transform="rotate(-0, 116.499059, 172.390688)" x="116.499059" y="172.390688">0.6</text>
     </g>
    </g>
    <g id="xtick_3">
     <g id="line2d_3">
      <g>
       <use style="stroke:#000000;stroke-width:0.8;" x="140.052565" xlink:href="#ma61f27120d" y="161.096"/>
      </g>
     </g>
     <g id="text_3">
      <text style="font-family:Arial;font-size:6px;font-style:normal;font-weight:400;text-anchor:middle;" transform="rotate(-0, 140.052565, 172.390688)" x="140.052565" y="172.390688">0.8</text>
     </g>
    </g>
    <g id="xtick_4">
     <g id="line2d_4">
      <g>
       <use style="stroke:#000000;stroke-width:0.8;" x="163.606071" xlink:href="#ma61f27120d" y="161.096"/>
      </g>
     </g>
     <g id="text_4">
      <text style="font-family:Arial;font-size:6px;font-style:normal;font-weight:400;text-anchor:middle;" transform="rotate(-0, 163.606071, 172.390688)" x="163.606071" y="172.390688">1.0</text>
     </g>
    </g>
    <g id="text_5">
     <text style="font-family:Arial;font-size:8px;font-style:normal;font-weight:400;" transform="translate(97.65375 183.309438)">YFP synthesis rate</text>
     <text style="font-family:Arial;font-size:8px;font-style:normal;font-weight:400;" transform="translate(112.998125 191.981688)">(Ser-Rich)</text>
    </g>
   </g>
   <g id="matplotlib.axis_2">
    <g id="ytick_1">
     <g id="line2d_5">
      <defs>
       <path d="M 0 0 
L -3.5 0 
" id="m7b98e1c0a7" style="stroke:#000000;stroke-width:0.8;"/>
      </defs>
      <g>
       <use style="stroke:#000000;stroke-width:0.8;" x="76" xlink:href="#m7b98e1c0a7" y="141.013362"/>
      </g>
     </g>
     <g id="text_6">
      <text style="font-family:Arial;font-size:6px;font-style:normal;font-weight:400;text-anchor:end;" transform="rotate(-0, 69, 143.160706)" x="69" y="143.160706">0.8</text>
     </g>
    </g>
    <g id="ytick_2">
     <g id="line2d_6">
      <g>
       <use style="stroke:#000000;stroke-width:0.8;" x="76" xlink:href="#m7b98e1c0a7" y="120.815208"/>
      </g>
     </g>
     <g id="text_7">
      <text style="font-family:Arial;font-size:6px;font-style:normal;font-weight:400;text-anchor:end;" transform="rotate(-0, 69, 122.962551)" x="69" y="122.962551">0.9</text>
     </g>
    </g>
    <g id="ytick_3">
     <g id="line2d_7">
      <g>
       <use style="stroke:#000000;stroke-width:0.8;" x="76" xlink:href="#m7b98e1c0a7" y="100.617053"/>
      </g>
     </g>
     <g id="text_8">
      <text style="font-family:Arial;font-size:6px;font-style:normal;font-weight:400;text-anchor:end;" transform="rotate(-0, 69, 102.764397)" x="69" y="102.764397">1.0</text>
     </g>
    </g>
    <g id="ytick_4">
     <g id="line2d_8">
      <g>
       <use style="stroke:#000000;stroke-width:0.8;" x="76" xlink:href="#m7b98e1c0a7" y="80.418899"/>
      </g>
     </g>
     <g id="text_9">
      <text style="font-family:Arial;font-size:6px;font-style:normal;font-weight:400;text-anchor:end;" transform="rotate(-0, 69, 82.566242)" x="69" y="82.566242">1.1</text>
     </g>
    </g>
    <g id="text_10">
     <text style="font-family:Arial;font-size:8px;font-style:normal;font-weight:400;" transform="translate(46.304 146.17425)rotate(-90)">YFP synthesis rate</text>
     <text style="font-family:Arial;font-size:8px;font-style:normal;font-weight:400;" transform="translate(54.97625 155.28925)rotate(-90)">(Relative to no stall site)</text>
    </g>
   </g>
   <g id="LineCollection_1">
    <path clip-path="url(#pec35d92a95)" d="M 85.565455 88.218271 
L 85.565455 73.073455 
" style="fill:none;stroke:#000000;stroke-opacity:0.8;stroke-width:0.5;"/>
    <path clip-path="url(#pec35d92a95)" d="M 102.13142 140.680365 
L 102.13142 95.531411 
" style="fill:none;stroke:#000000;stroke-opacity:0.8;stroke-width:0.5;"/>
    <path clip-path="url(#pec35d92a95)" d="M 131.965861 126.670665 
L 131.965861 118.834894 
" style="fill:none;stroke:#000000;stroke-opacity:0.8;stroke-width:0.5;"/>
    <path clip-path="url(#pec35d92a95)" d="M 163.606071 143.866467 
L 163.606071 134.503384 
" style="fill:none;stroke:#000000;stroke-opacity:0.8;stroke-width:0.5;"/>
    <path clip-path="url(#pec35d92a95)" d="M 176.874545 149.041779 
L 176.874545 124.369788 
" style="fill:none;stroke:#000000;stroke-opacity:0.8;stroke-width:0.5;"/>
   </g>
   <g id="line2d_9">
    <defs>
     <path d="M 0 2 
C 0.530406 2 1.03916 1.789267 1.414214 1.414214 
C 1.789267 1.03916 2 0.530406 2 0 
C 2 -0.530406 1.789267 -1.03916 1.414214 -1.414214 
C 1.03916 -1.789267 0.530406 -2 0 -2 
C -0.530406 -2 -1.03916 -1.789267 -1.414214 -1.414214 
C -1.789267 -1.03916 -2 -0.530406 -2 0 
C -2 0.530406 -1.789267 1.03916 -1.414214 1.414214 
C -1.03916 1.789267 -0.530406 2 0 2 
z
" id="m85372eaef5"/>
    </defs>
    <g clip-path="url(#pec35d92a95)">
     <use style="fill:#008000;fill-opacity:0.6;" x="85.565455" xlink:href="#m85372eaef5" y="97.405547"/>
     <use style="fill:#008000;fill-opacity:0.6;" x="102.13142" xlink:href="#m85372eaef5" y="100.273685"/>
     <use style="fill:#008000;fill-opacity:0.6;" x="131.965861" xlink:href="#m85372eaef5" y="111.867425"/>
     <use style="fill:#008000;fill-opacity:0.6;" x="163.606071" xlink:href="#m85372eaef5" y="143.760311"/>
     <use style="fill:#008000;fill-opacity:0.6;" x="176.874545" xlink:href="#m85372eaef5" y="152.142545"/>
    </g>
   </g>
   <g id="line2d_10">
    <defs>
     <path d="M -0 2.828427 
L 1.697056 0 
L 0 -2.828427 
L -1.697056 -0 
z
" id="me961827b89"/>
    </defs>
    <g clip-path="url(#pec35d92a95)">
     <use style="fill:#ff0000;fill-opacity:0.6;" x="85.565455" xlink:href="#me961827b89" y="118.007664"/>
     <use style="fill:#ff0000;fill-opacity:0.6;" x="102.13142" xlink:href="#me961827b89" y="125.662765"/>
     <use style="fill:#ff0000;fill-opacity:0.6;" x="131.965861" xlink:href="#me961827b89" y="133.257271"/>
     <use style="fill:#ff0000;fill-opacity:0.6;" x="163.606071" xlink:href="#me961827b89" y="139.579293"/>
     <use style="fill:#ff0000;fill-opacity:0.6;" x="176.874545" xlink:href="#me961827b89" y="143.295754"/>
    </g>
   </g>
   <g id="line2d_11">
    <defs>
     <path d="M -2 2 
L 2 2 
L 2 -2 
L -2 -2 
z
" id="m77c052b7d5"/>
    </defs>
    <g clip-path="url(#pec35d92a95)">
     <use style="fill:#0000ff;fill-opacity:0.6;" x="85.565455" xlink:href="#m77c052b7d5" y="135.681049"/>
     <use style="fill:#0000ff;fill-opacity:0.6;" x="102.13142" xlink:href="#m77c052b7d5" y="133.721828"/>
     <use style="fill:#0000ff;fill-opacity:0.6;" x="131.965861" xlink:href="#m77c052b7d5" y="131.722211"/>
     <use style="fill:#0000ff;fill-opacity:0.6;" x="163.606071" xlink:href="#m77c052b7d5" y="138.710773"/>
     <use style="fill:#0000ff;fill-opacity:0.6;" x="176.874545" xlink:href="#m77c052b7d5" y="136.953533"/>
    </g>
   </g>
   <g id="line2d_12">
    <defs>
     <path d="M 2 0 
L -2 -0 
" id="mb907e9c51b" style="stroke:#000000;"/>
    </defs>
    <g clip-path="url(#pec35d92a95)">
     <use style="opacity:0.8;stroke:#000000;" x="85.565455" xlink:href="#mb907e9c51b" y="88.218271"/>
     <use style="opacity:0.8;stroke:#000000;" x="102.13142" xlink:href="#mb907e9c51b" y="140.680365"/>
     <use style="opacity:0.8;stroke:#000000;" x="131.965861" xlink:href="#mb907e9c51b" y="126.670665"/>
     <use style="opacity:0.8;stroke:#000000;" x="163.606071" xlink:href="#mb907e9c51b" y="143.866467"/>
     <use style="opacity:0.8;stroke:#000000;" x="176.874545" xlink:href="#mb907e9c51b" y="149.041779"/>
    </g>
   </g>
   <g id="line2d_13">
    <g clip-path="url(#pec35d92a95)">
     <use style="opacity:0.8;stroke:#000000;" x="85.565455" xlink:href="#mb907e9c51b" y="73.073455"/>
     <use style="opacity:0.8;stroke:#000000;" x="102.13142" xlink:href="#mb907e9c51b" y="95.531411"/>
     <use style="opacity:0.8;stroke:#000000;" x="131.965861" xlink:href="#mb907e9c51b" y="118.834894"/>
     <use style="opacity:0.8;stroke:#000000;" x="163.606071" xlink:href="#mb907e9c51b" y="134.503384"/>
     <use style="opacity:0.8;stroke:#000000;" x="176.874545" xlink:href="#mb907e9c51b" y="124.369788"/>
    </g>
   </g>
   <g id="line2d_14">
    <defs>
     <path d="M 0 -2 
L -2 2 
L 2 2 
z
" id="mebbd3948a6" style="stroke:#000000;stroke-linejoin:miter;"/>
    </defs>
    <g clip-path="url(#pec35d92a95)">
     <use style="opacity:0.8;stroke:#000000;stroke-linejoin:miter;" x="85.565455" xlink:href="#mebbd3948a6" y="80.645863"/>
     <use style="opacity:0.8;stroke:#000000;stroke-linejoin:miter;" x="102.13142" xlink:href="#mebbd3948a6" y="118.105888"/>
     <use style="opacity:0.8;stroke:#000000;stroke-linejoin:miter;" x="131.965861" xlink:href="#mebbd3948a6" y="122.75278"/>
     <use style="opacity:0.8;stroke:#000000;stroke-linejoin:miter;" x="163.606071" xlink:href="#mebbd3948a6" y="139.184925"/>
     <use style="opacity:0.8;stroke:#000000;stroke-linejoin:miter;" x="176.874545" xlink:href="#mebbd3948a6" y="136.705784"/>
    </g>
   </g>
   <g id="patch_3">
    <path d="M 76 156.096 
L 76 69.12 
" style="fill:none;stroke:#000000;stroke-linecap:square;stroke-linejoin:miter;stroke-width:0.8;"/>
   </g>
   <g id="patch_4">
    <path d="M 181.44 156.096 
L 181.44 69.12 
" style="fill:none;"/>
   </g>
   <g id="patch_5">
    <path d="M 81 161.096 
L 181.44 161.096 
" style="fill:none;stroke:#000000;stroke-linecap:square;stroke-linejoin:miter;stroke-width:0.8;"/>
   </g>
   <g id="patch_6">
    <path d="M 81 69.12 
L 181.44 69.12 
" style="fill:none;"/>
   </g>
   <g id="text_11">
    <text style="fill:#800080;font-family:Arial;font-size:8px;font-style:normal;font-weight:400;text-anchor:middle;" transform="rotate(-0, 85.565455, 156.096)" x="85.565455" y="156.096">1</text>
   </g>
   <g id="text_12">
    <text style="fill:#800080;font-family:Arial;font-size:8px;font-style:normal;font-weight:400;text-anchor:middle;" transform="rotate(-0, 102.13142, 156.096)" x="102.13142" y="156.096">2</text>
   </g>
   <g id="text_13">
    <text style="fill:#800080;font-family:Arial;font-size:8px;font-style:normal;font-weight:400;text-anchor:middle;" transform="rotate(-0, 131.965861, 156.096)" x="131.965861" y="156.096">3</text>
   </g>
   <g id="text_14">
    <text style="fill:#800080;font-family:Arial;font-size:8px;font-style:normal;font-weight:400;text-anchor:middle;" transform="rotate(-0, 163.606071, 156.096)" x="163.606071" y="156.096">4</text>
   </g>
   <g id="text_15">
    <text style="fill:#800080;font-family:Arial;font-size:8px;font-style:normal;font-weight:400;text-anchor:middle;" transform="rotate(-0, 176.874545, 156.096)" x="176.874545" y="156.096">5</text>
   </g>
   <g id="text_16">
    <text style="font-family:Arial;font-size:9.6px;font-style:normal;font-weight:700;text-anchor:start;" transform="rotate(-0, 30.78, 60.4224)" x="30.78" y="60.4224">H</text>
   </g>
   <g id="text_17">
    <text style="font-family:Arial;font-size:8px;font-style:normal;font-weight:700;text-anchor:middle;" transform="rotate(-0, 131.22, 54.4224)" x="131.22" y="54.4224">TCG5</text>
   </g>
   <g id="legend_1">
    <g id="LineCollection_2">
     <path d="M 184.137563 68.617088 
L 184.137563 62.617088 
" style="fill:none;stroke:#000000;stroke-opacity:0.8;stroke-width:0.5;"/>
    </g>
    <g id="line2d_15">
     <g>
      <use style="opacity:0.8;stroke:#000000;" x="184.137563" xlink:href="#mb907e9c51b" y="68.617088"/>
     </g>
    </g>
    <g id="line2d_16">
     <g>
      <use style="opacity:0.8;stroke:#000000;" x="184.137563" xlink:href="#mb907e9c51b" y="62.617088"/>
     </g>
    </g>
    <g id="line2d_17"/>
    <g id="line2d_18">
     <defs>
      <path d="M 0 -1.6 
L -1.6 1.6 
L 1.6 1.6 
z
" id="m38c0d4ac5e" style="stroke:#000000;stroke-linejoin:miter;"/>
     </defs>
     <g>
      <use style="opacity:0.8;stroke:#000000;stroke-linejoin:miter;" x="184.137563" xlink:href="#m38c0d4ac5e" y="65.617088"/>
     </g>
    </g>
    <g id="text_18">
     <text style="font-family:Arial;font-size:6px;font-style:normal;font-weight:400;text-anchor:start;" transform="rotate(-0, 191.937563, 67.717088)" x="191.937563" y="67.717088">Measured</text>
    </g>
    <g id="line2d_19"/>
    <g id="line2d_20">
     <defs>
      <path d="M 0 1.6 
C 0.424325 1.6 0.831328 1.431414 1.131371 1.131371 
C 1.431414 0.831328 1.6 0.424325 1.6 0 
C 1.6 -0.424325 1.431414 -0.831328 1.131371 -1.131371 
C 0.831328 -1.431414 0.424325 -1.6 0 -1.6 
C -0.424325 -1.6 -0.831328 -1.431414 -1.131371 -1.131371 
C -1.431414 -0.831328 -1.6 -0.424325 -1.6 0 
C -1.6 0.424325 -1.431414 0.831328 -1.131371 1.131371 
C -0.831328 1.431414 -0.424325 1.6 0 1.6 
z
" id="m487f6d17ba"/>
     </defs>
     <g>
      <use style="fill:#008000;fill-opacity:0.6;" x="184.137563" xlink:href="#m487f6d17ba" y="74.104275"/>
     </g>
    </g>
    <g id="text_19">
     <text style="font-family:Arial;font-size:6px;font-style:normal;font-weight:400;text-anchor:start;" transform="rotate(-0, 191.937563, 76.204275)" x="191.937563" y="76.204275">TJ 7%</text>
    </g>
    <g id="line2d_21"/>
    <g id="line2d_22">
     <defs>
      <path d="M -0 2.262742 
L 1.357645 0 
L 0 -2.262742 
L -1.357645 -0 
z
" id="mca1e6cc8c5"/>
     </defs>
     <g>
      <use style="fill:#ff0000;fill-opacity:0.6;" x="184.137563" xlink:href="#mca1e6cc8c5" y="82.591463"/>
     </g>
    </g>
    <g id="text_20">
     <text style="font-family:Arial;font-size:6px;font-style:normal;font-weight:400;text-anchor:start;" transform="rotate(-0, 191.937563, 84.691463)" x="191.937563" y="84.691463">CSAT 9%</text>
    </g>
    <g id="line2d_23"/>
    <g id="line2d_24">
     <defs>
      <path d="M -1.6 1.6 
L 1.6 1.6 
L 1.6 -1.6 
L -1.6 -1.6 
z
" id="me4add5d07f"/>
     </defs>
     <g>
      <use style="fill:#0000ff;fill-opacity:0.6;" x="184.137563" xlink:href="#me4add5d07f" y="91.07865"/>
     </g>
    </g>
    <g id="text_21">
     <text style="font-family:Arial;font-size:6px;font-style:normal;font-weight:400;text-anchor:start;" transform="rotate(-0, 191.937563, 93.17865)" x="191.937563" y="93.17865">SAT 14%</text>
    </g>
   </g>
  </g>
 </g>
 <defs>
  <clipPath id="pec35d92a95">
   <rect height="86.976" width="100.44" x="81" y="69.12"/>
  </clipPath>
 </defs>
</svg>
