<?xml version="1.0" encoding="utf-8" standalone="no"?>
<!DOCTYPE svg PUBLIC "-//W3C//DTD SVG 1.1//EN"
  "http://www.w3.org/Graphics/SVG/1.1/DTD/svg11.dtd">
<!-- Created with matplotlib (http://matplotlib.org/) -->
<svg height="115pt" version="1.1" viewBox="0 0 288 115" width="288pt" xmlns="http://www.w3.org/2000/svg" xmlns:xlink="http://www.w3.org/1999/xlink">
 <defs>
  <style type="text/css">
*{stroke-linecap:butt;stroke-linejoin:round;}
  </style>
 </defs>
 <g id="figure_1">
  <g id="patch_1">
   <path d="M 0 115.2 
L 288 115.2 
L 288 0 
L 0 0 
z
" style="fill:#ffffff;"/>
  </g>
  <g id="axes_1">
   <g id="patch_2">
    <path d="M 36 100.8 
L 259.2 100.8 
L 259.2 13.824 
L 36 13.824 
z
" style="fill:#ffffff;"/>
   </g>
   <g id="matplotlib.axis_1">
    <g id="xtick_1">
     <g id="line2d_1">
      <defs>
       <path d="M 0 0 
L 0 3.5 
" id="mc3c50014fc" style="stroke:#000000;stroke-width:0.8;"/>
      </defs>
      <g>
       <use style="stroke:#000000;stroke-width:0.8;" x="59.254736" xlink:href="#mc3c50014fc" y="105.8"/>
      </g>
     </g>
     <g id="text_1">
      <!-- ${2^{-6}}$ -->
      <g transform="translate(54.964736 118.8675)">
       <text>
        <tspan style="font-family:Arial;font-size:6px;font-style:regular;font-weight:regular;" x="0" y="-0.799625">2</tspan>
        <tspan style="font-family:Arial;font-size:4.2px;font-style:regular;font-weight:regular;" x="3.441455 5.894189" y="-4.98125">−6</tspan>
       </text>
      </g>
     </g>
    </g>
    <g id="xtick_2">
     <g id="line2d_2">
      <g>
       <use style="stroke:#000000;stroke-width:0.8;" x="99.975885" xlink:href="#mc3c50014fc" y="105.8"/>
      </g>
     </g>
     <g id="text_2">
      <!-- ${2^{-4}}$ -->
      <g transform="translate(95.685885 118.8075)">
       <text>
        <tspan style="font-family:Arial;font-size:6px;font-style:regular;font-weight:regular;" x="0" y="-0.8105625">2</tspan>
        <tspan style="font-family:Arial;font-size:4.2px;font-style:regular;font-weight:regular;" x="3.441455 5.894189" y="-4.9921875">−4</tspan>
       </text>
      </g>
     </g>
    </g>
    <g id="xtick_3">
     <g id="line2d_3">
      <g>
       <use style="stroke:#000000;stroke-width:0.8;" x="140.697033" xlink:href="#mc3c50014fc" y="105.8"/>
      </g>
     </g>
     <g id="text_3">
      <!-- ${2^{-2}}$ -->
      <g transform="translate(136.407033 118.8675)">
       <text>
        <tspan style="font-family:Arial;font-size:6px;font-style:regular;font-weight:regular;" x="0" y="-0.799625">2</tspan>
        <tspan style="font-family:Arial;font-size:4.2px;font-style:regular;font-weight:regular;" x="3.441455 5.894189" y="-4.98125">−2</tspan>
       </text>
      </g>
     </g>
    </g>
    <g id="xtick_4">
     <g id="line2d_4">
      <g>
       <use style="stroke:#000000;stroke-width:0.8;" x="181.418182" xlink:href="#mc3c50014fc" y="105.8"/>
      </g>
     </g>
     <g id="text_4">
      <!-- ${2^{0}}$ -->
      <g transform="translate(178.358182 118.8675)">
       <text>
        <tspan style="font-family:Arial;font-size:6px;font-style:regular;font-weight:regular;" x="0" y="-0.799625">2</tspan>
        <tspan style="font-family:Arial;font-size:4.2px;font-style:regular;font-weight:regular;" x="3.441455" y="-4.98125">0</tspan>
       </text>
      </g>
     </g>
    </g>
    <g id="xtick_5">
     <g id="line2d_5">
      <g>
       <use style="stroke:#000000;stroke-width:0.8;" x="222.13933" xlink:href="#mc3c50014fc" y="105.8"/>
      </g>
     </g>
     <g id="text_5">
      <!-- ${2^{2}}$ -->
      <g transform="translate(219.07933 118.8675)">
       <text>
        <tspan style="font-family:Arial;font-size:6px;font-style:regular;font-weight:regular;" x="0" y="-0.799625">2</tspan>
        <tspan style="font-family:Arial;font-size:4.2px;font-style:regular;font-weight:regular;" x="3.441455" y="-4.98125">2</tspan>
       </text>
      </g>
     </g>
    </g>
    <g id="text_6">
     <text style="font-family:Arial;font-size:8px;font-style:normal;font-weight:400;text-anchor:middle;" transform="rotate(-0, 147.6, 129.88375)" x="147.6" y="129.88375">Abortive termination rate (s-1)</text>
    </g>
   </g>
   <g id="matplotlib.axis_2">
    <g id="ytick_1">
     <g id="line2d_6">
      <defs>
       <path d="M 0 0 
L -3.5 0 
" id="mf9dcb23c42" style="stroke:#000000;stroke-width:0.8;"/>
      </defs>
      <g>
       <use style="stroke:#000000;stroke-width:0.8;" x="31" xlink:href="#mf9dcb23c42" y="96.888978"/>
      </g>
     </g>
     <g id="text_7">
      <text style="font-family:Arial;font-size:6px;font-style:normal;font-weight:400;text-anchor:end;" transform="rotate(-0, 24, 99.036321)" x="24" y="99.036321">0.0</text>
     </g>
    </g>
    <g id="ytick_2">
     <g id="line2d_7">
      <g>
       <use style="stroke:#000000;stroke-width:0.8;" x="31" xlink:href="#mf9dcb23c42" y="65.244368"/>
      </g>
     </g>
     <g id="text_8">
      <text style="font-family:Arial;font-size:6px;font-style:normal;font-weight:400;text-anchor:end;" transform="rotate(-0, 24, 67.391712)" x="24" y="67.391712">0.4</text>
     </g>
    </g>
    <g id="ytick_3">
     <g id="line2d_8">
      <g>
       <use style="stroke:#000000;stroke-width:0.8;" x="31" xlink:href="#mf9dcb23c42" y="33.599759"/>
      </g>
     </g>
     <g id="text_9">
      <text style="font-family:Arial;font-size:6px;font-style:normal;font-weight:400;text-anchor:end;" transform="rotate(-0, 24, 35.747103)" x="24" y="35.747103">0.8</text>
     </g>
    </g>
    <g id="text_10">
     <text style="font-family:Arial;font-size:8px;font-style:normal;font-weight:400;" transform="translate(1.51475 106.218875)rotate(-90)">Protein synthesis rate (a.u.)</text>
     <text style="font-family:Arial;font-size:8px;font-style:normal;font-weight:400;" transform="translate(10.07 77.985125)rotate(-90)">No stall site</text>
    </g>
   </g>
   <g id="line2d_9">
    <path clip-path="url(#p9b4de78be1)" d="M 46.145455 19.457432 
L 49.52679 18.784089 
L 52.910831 18.788177 
L 56.300524 19.449725 
L 59.674707 19.208996 
L 63.04993 18.836155 
L 66.432502 19.089831 
L 69.821841 19.139754 
L 73.201328 19.85918 
L 76.577827 17.777455 
L 79.961057 19.406368 
L 83.344346 18.339604 
L 86.726744 18.737127 
L 90.11017 19.327753 
L 93.491657 18.508642 
L 96.870569 18.966721 
L 100.256531 19.108529 
L 103.634464 19.036964 
L 107.017138 20.111927 
L 110.401617 18.255004 
L 113.781818 18.754354 
L 117.163153 19.712773 
L 120.547195 18.701435 
L 123.936888 18.340808 
L 127.31107 18.888017 
L 130.686293 19.70492 
L 134.068865 19.500069 
L 137.458204 20.003334 
L 140.837692 19.843837 
L 144.214191 18.560624 
L 147.597421 19.30231 
L 150.98071 19.618554 
L 154.363107 19.502076 
L 157.746534 19.470524 
L 161.128021 19.28182 
L 164.506932 18.603713 
L 167.892895 18.701863 
L 171.270828 19.565391 
L 174.653501 18.870222 
L 178.037981 19.652666 
L 181.418182 19.574946 
L 184.799517 18.96321 
L 188.183558 17.782525 
L 191.573252 18.272831 
L 194.947434 19.253395 
L 198.322657 20.197974 
L 201.705229 18.689929 
L 205.094568 19.605512 
L 208.474055 18.721738 
L 211.850554 19.237564 
L 215.233784 19.772108 
L 218.617073 19.232479 
L 221.999471 18.722548 
L 225.382897 19.739022 
L 228.764385 19.288851 
L 232.143296 19.579107 
L 235.529258 19.781897 
L 238.907191 20.058332 
L 242.289865 19.218995 
L 245.674344 20.169132 
L 249.054545 19.564047 
" style="fill:none;opacity:0.6;stroke:#ff0000;stroke-linecap:square;stroke-width:2;"/>
   </g>
   <g id="line2d_10">
    <path clip-path="url(#p9b4de78be1)" d="M 46.145455 18.051358 
L 49.52679 17.923964 
L 52.910831 19.046711 
L 56.300524 18.830798 
L 59.674707 19.546122 
L 63.04993 18.589948 
L 66.432502 20.100359 
L 69.821841 19.108738 
L 73.201328 20.037382 
L 76.577827 18.787687 
L 79.961057 19.468466 
L 83.344346 19.641023 
L 86.726744 19.332132 
L 90.11017 20.127807 
L 93.491657 18.247042 
L 96.870569 19.119404 
L 100.256531 18.883561 
L 103.634464 18.241281 
L 107.017138 19.035021 
L 110.401617 18.268778 
L 113.781818 20.422377 
L 117.163153 19.528413 
L 120.547195 18.122678 
L 123.936888 19.581118 
L 127.31107 19.198517 
L 130.686293 19.032924 
L 134.068865 17.804562 
L 137.458204 19.662061 
L 140.837692 19.240465 
L 144.214191 18.233243 
L 147.597421 18.348471 
L 150.98071 19.322875 
L 154.363107 19.140505 
L 157.746534 19.400823 
L 161.128021 18.994392 
L 164.506932 19.006183 
L 167.892895 18.971401 
L 171.270828 19.839461 
L 174.653501 19.152541 
L 178.037981 19.689099 
L 181.418182 18.112491 
L 184.799517 19.294272 
L 188.183558 18.471309 
L 191.573252 18.85748 
L 194.947434 18.188671 
L 198.322657 18.959309 
L 201.705229 21.123244 
L 205.094568 18.79074 
L 208.474055 18.81478 
L 211.850554 19.065889 
L 215.233784 18.236773 
L 218.617073 18.408396 
L 221.999471 18.831515 
L 225.382897 19.309806 
L 228.764385 19.428244 
L 232.143296 18.845845 
L 235.529258 18.753519 
L 238.907191 17.777455 
L 242.289865 19.254623 
L 245.674344 20.385058 
L 249.054545 18.066707 
" style="fill:none;opacity:0.6;stroke:#0000ff;stroke-linecap:square;stroke-width:2;"/>
   </g>
   <g id="line2d_11">
    <path clip-path="url(#p9b4de78be1)" d="M 46.145455 19.448319 
L 49.52679 17.777455 
L 52.910831 19.349612 
L 56.300524 19.250918 
L 59.674707 18.9225 
L 63.04993 19.221926 
L 66.432502 20.797215 
L 69.821841 21.442362 
L 73.201328 19.439104 
L 76.577827 21.391065 
L 79.961057 20.916468 
L 83.344346 22.229825 
L 86.726744 21.417769 
L 90.11017 22.044925 
L 93.491657 22.113758 
L 96.870569 22.438333 
L 100.256531 23.288017 
L 103.634464 24.289634 
L 107.017138 24.770014 
L 110.401617 25.247078 
L 113.781818 25.456167 
L 117.163153 26.572304 
L 120.547195 27.786576 
L 123.936888 28.089658 
L 127.31107 29.615137 
L 130.686293 28.899848 
L 134.068865 31.297843 
L 137.458204 32.342329 
L 140.837692 33.43355 
L 144.214191 35.364904 
L 147.597421 38.047374 
L 150.98071 39.330847 
L 154.363107 42.509736 
L 157.746534 43.58007 
L 161.128021 46.531284 
L 164.506932 49.764987 
L 167.892895 51.955317 
L 171.270828 54.845174 
L 174.653501 57.490123 
L 178.037981 60.381835 
L 181.418182 64.081905 
L 184.799517 67.674221 
L 188.183558 70.666376 
L 191.573252 74.028308 
L 194.947434 77.17088 
L 198.322657 80.215251 
L 201.705229 82.930392 
L 205.094568 85.483117 
L 208.474055 87.965647 
L 211.850554 89.993856 
L 215.233784 91.753523 
L 218.617073 93.185574 
L 221.999471 94.299539 
L 225.382897 95.192029 
L 228.764385 95.835121 
L 232.143296 96.251828 
L 235.529258 96.520233 
L 238.907191 96.700533 
L 242.289865 96.795497 
L 245.674344 96.846545 
" style="fill:none;opacity:0.6;stroke:#ee82ee;stroke-linecap:square;stroke-width:2;"/>
   </g>
   <g id="patch_3">
    <path d="M 31 100.8 
L 31 13.824 
" style="fill:none;stroke:#000000;stroke-linecap:square;stroke-linejoin:miter;stroke-width:0.8;"/>
   </g>
   <g id="patch_4">
    <path d="M 259.2 100.8 
L 259.2 13.824 
" style="fill:none;"/>
   </g>
   <g id="patch_5">
    <path d="M 36 105.8 
L 259.2 105.8 
" style="fill:none;stroke:#000000;stroke-linecap:square;stroke-linejoin:miter;stroke-width:0.8;"/>
   </g>
   <g id="patch_6">
    <path d="M 36 13.824 
L 259.2 13.824 
" style="fill:none;"/>
   </g>
   <g id="legend_1">
    <g id="line2d_12">
     <path style="fill:none;opacity:0.6;stroke:#ff0000;stroke-linecap:square;stroke-width:2;"/>
    </g>
    <g id="line2d_13"/>
    <g id="text_11">
     <text style="font-family:Arial;font-size:6px;font-style:normal;font-weight:400;text-anchor:start;" transform="rotate(-0, 317.64, 47.211488)" x="317.64" y="47.211488">CSAT</text>
    </g>
    <g id="line2d_14">
     <path style="fill:none;opacity:0.6;stroke:#0000ff;stroke-linecap:square;stroke-width:2;"/>
    </g>
    <g id="line2d_15"/>
    <g id="text_12">
     <text style="font-family:Arial;font-size:6px;font-style:normal;font-weight:400;text-anchor:start;" transform="rotate(-0, 317.64, 55.7718)" x="317.64" y="55.7718">SAT (selective)</text>
    </g>
    <g id="line2d_16">
     <path style="fill:none;opacity:0.6;stroke:#ee82ee;stroke-linecap:square;stroke-width:2;"/>
    </g>
    <g id="line2d_17"/>
    <g id="text_13">
     <text style="font-family:Arial;font-size:6px;font-style:normal;font-weight:400;text-anchor:start;" transform="rotate(-0, 317.64, 64.402425)" x="317.64" y="64.402425">SAT (non-selective)</text>
    </g>
   </g>
  </g>
 </g>
 <defs>
  <clipPath id="p9b4de78be1">
   <rect height="86.976" width="223.2" x="36" y="13.824"/>
  </clipPath>
 </defs>
</svg>
