<?xml version="1.0" encoding="utf-8" standalone="no"?>
<!DOCTYPE svg PUBLIC "-//W3C//DTD SVG 1.1//EN"
  "http://www.w3.org/Graphics/SVG/1.1/DTD/svg11.dtd">
<!-- Created with matplotlib (http://matplotlib.org/) -->
<svg height="115pt" version="1.1" viewBox="0 0 288 115" width="288pt" xmlns="http://www.w3.org/2000/svg" xmlns:xlink="http://www.w3.org/1999/xlink">
 <defs>
  <style type="text/css">
*{stroke-linecap:butt;stroke-linejoin:round;}
  </style>
 </defs>
 <g id="figure_1">
  <g id="patch_1">
   <path d="M 0 115.2 
L 288 115.2 
L 288 0 
L 0 0 
z
" style="fill:#ffffff;"/>
  </g>
  <g id="axes_1">
   <g id="patch_2">
    <path d="M 36 100.8 
L 259.2 100.8 
L 259.2 13.824 
L 36 13.824 
z
" style="fill:#ffffff;"/>
   </g>
   <g id="matplotlib.axis_1">
    <g id="xtick_1">
     <g id="line2d_1">
      <defs>
       <path d="M 0 0 
L 0 3.5 
" id="mbee2f82844" style="stroke:#000000;stroke-width:0.8;"/>
      </defs>
      <g>
       <use style="stroke:#000000;stroke-width:0.8;" x="74.757817" xlink:href="#mbee2f82844" y="105.8"/>
      </g>
     </g>
     <g id="text_1">
      <!-- ${2^{-5}}$ -->
      <g transform="translate(70.467817 118.8075)">
       <text>
        <tspan style="font-family:Arial;font-size:6px;font-style:regular;font-weight:regular;" x="0" y="-0.8543125">2</tspan>
        <tspan style="font-family:Arial;font-size:4.2px;font-style:regular;font-weight:regular;" x="3.441455 5.894189" y="-5.0359375">−5</tspan>
       </text>
      </g>
     </g>
    </g>
    <g id="xtick_2">
     <g id="line2d_2">
      <g>
       <use style="stroke:#000000;stroke-width:0.8;" x="118.388261" xlink:href="#mbee2f82844" y="105.8"/>
      </g>
     </g>
     <g id="text_2">
      <!-- ${2^{-3}}$ -->
      <g transform="translate(114.098261 118.8675)">
       <text>
        <tspan style="font-family:Arial;font-size:6px;font-style:regular;font-weight:regular;" x="0" y="-0.799625">2</tspan>
        <tspan style="font-family:Arial;font-size:4.2px;font-style:regular;font-weight:regular;" x="3.441455 5.894189" y="-4.98125">−3</tspan>
       </text>
      </g>
     </g>
    </g>
    <g id="xtick_3">
     <g id="line2d_3">
      <g>
       <use style="stroke:#000000;stroke-width:0.8;" x="162.018704" xlink:href="#mbee2f82844" y="105.8"/>
      </g>
     </g>
     <g id="text_3">
      <!-- ${2^{-1}}$ -->
      <g transform="translate(157.728704 118.8675)">
       <text>
        <tspan style="font-family:Arial;font-size:6px;font-style:regular;font-weight:regular;" x="0" y="-0.799625">2</tspan>
        <tspan style="font-family:Arial;font-size:4.2px;font-style:regular;font-weight:regular;" x="3.441455 5.894189" y="-4.98125">−1</tspan>
       </text>
      </g>
     </g>
    </g>
    <g id="xtick_4">
     <g id="line2d_4">
      <g>
       <use style="stroke:#000000;stroke-width:0.8;" x="205.649148" xlink:href="#mbee2f82844" y="105.8"/>
      </g>
     </g>
     <g id="text_4">
      <!-- ${2^{1}}$ -->
      <g transform="translate(202.589148 118.8675)">
       <text>
        <tspan style="font-family:Arial;font-size:6px;font-style:regular;font-weight:regular;" x="0" y="-0.799625">2</tspan>
        <tspan style="font-family:Arial;font-size:4.2px;font-style:regular;font-weight:regular;" x="3.441455" y="-4.98125">1</tspan>
       </text>
      </g>
     </g>
    </g>
    <g id="xtick_5">
     <g id="line2d_5">
      <g>
       <use style="stroke:#000000;stroke-width:0.8;" x="249.279591" xlink:href="#mbee2f82844" y="105.8"/>
      </g>
     </g>
     <g id="text_5">
      <!-- ${2^{3}}$ -->
      <g transform="translate(246.219591 118.8675)">
       <text>
        <tspan style="font-family:Arial;font-size:6px;font-style:regular;font-weight:regular;" x="0" y="-0.799625">2</tspan>
        <tspan style="font-family:Arial;font-size:4.2px;font-style:regular;font-weight:regular;" x="3.441455" y="-4.98125">3</tspan>
       </text>
      </g>
     </g>
    </g>
    <g id="text_6">
     <text style="font-family:Arial;font-size:8px;font-style:normal;font-weight:400;text-anchor:middle;" transform="rotate(-0, 147.6, 129.88375)" x="147.6" y="129.88375">Abortive termination rate (s⁻¹)</text>
    </g>
   </g>
   <g id="matplotlib.axis_2">
    <g id="ytick_1">
     <g id="line2d_6">
      <defs>
       <path d="M 0 0 
L -3.5 0 
" id="m004e2b245c" style="stroke:#000000;stroke-width:0.8;"/>
      </defs>
      <g>
       <use style="stroke:#000000;stroke-width:0.8;" x="31" xlink:href="#m004e2b245c" y="96.859577"/>
      </g>
     </g>
     <g id="text_7">
      <text style="font-family:Arial;font-size:6px;font-style:normal;font-weight:400;text-anchor:end;" transform="rotate(-0, 24, 99.006921)" x="24" y="99.006921">0.0</text>
     </g>
    </g>
    <g id="ytick_2">
     <g id="line2d_7">
      <g>
       <use style="stroke:#000000;stroke-width:0.8;" x="31" xlink:href="#m004e2b245c" y="63.933735"/>
      </g>
     </g>
     <g id="text_8">
      <text style="font-family:Arial;font-size:6px;font-style:normal;font-weight:400;text-anchor:end;" transform="rotate(-0, 24, 66.081078)" x="24" y="66.081078">0.4</text>
     </g>
    </g>
    <g id="ytick_3">
     <g id="line2d_8">
      <g>
       <use style="stroke:#000000;stroke-width:0.8;" x="31" xlink:href="#m004e2b245c" y="31.007893"/>
      </g>
     </g>
     <g id="text_9">
      <text style="font-family:Arial;font-size:6px;font-style:normal;font-weight:400;text-anchor:end;" transform="rotate(-0, 24, 33.155236)" x="24" y="33.155236">0.8</text>
     </g>
    </g>
    <g id="text_10">
     <text style="font-family:Arial;font-size:8px;font-style:normal;font-weight:400;" transform="translate(1.304 106.218875)rotate(-90)">Protein synthesis rate (a.u.)</text>
     <text style="font-family:Arial;font-size:8px;font-style:normal;font-weight:400;" transform="translate(9.97625 83.99075)rotate(-90)">Single stall site</text>
    </g>
   </g>
   <g id="line2d_9">
    <path clip-path="url(#p097bc7fb22)" d="M 46.145455 63.362985 
L 49.777322 63.783692 
L 53.392571 63.010024 
L 57.008934 63.724656 
L 60.633172 63.06333 
L 64.264659 63.740284 
L 67.885592 63.942549 
L 71.503323 63.242292 
L 75.128266 63.757112 
L 78.753271 64.14318 
L 82.377322 64.357541 
L 86.002475 64.070542 
L 89.62555 63.724262 
L 93.245866 64.534102 
L 96.873736 63.605588 
L 100.493003 63.809904 
L 104.11735 64.098486 
L 107.743631 64.688849 
L 111.365328 65.128908 
L 114.98824 65.421763 
L 118.614052 65.237582 
L 122.24592 65.026348 
L 125.861169 65.442898 
L 129.477532 65.314162 
L 133.10177 66.059818 
L 136.733257 66.948099 
L 140.35419 67.904138 
L 143.971921 68.204273 
L 147.596864 68.863103 
L 151.221869 69.226453 
L 154.84592 70.102729 
L 158.471073 70.236815 
L 162.094148 70.696794 
L 165.714464 70.541501 
L 169.342334 71.39616 
L 172.961601 72.280795 
L 176.585948 71.832525 
L 180.212229 72.501409 
L 183.833926 71.841388 
L 187.456838 72.219109 
L 191.08265 72.660634 
L 194.714518 73.121457 
L 198.329767 73.1025 
L 201.94613 73.104283 
L 205.570367 73.711181 
L 209.201855 73.07355 
L 212.822788 73.411536 
L 216.440519 73.38044 
L 220.065461 74.288292 
L 223.690467 74.518192 
L 227.314518 74.420286 
L 230.939671 74.222417 
L 234.562746 73.662396 
L 238.183062 74.070923 
L 241.810932 74.114654 
L 245.430199 74.140237 
L 249.054545 74.085995 
" style="fill:none;opacity:0.6;stroke:#ff0000;stroke-linecap:square;stroke-width:2;"/>
   </g>
   <g id="line2d_10">
    <path clip-path="url(#p097bc7fb22)" d="M 46.145455 18.716605 
L 49.777322 18.418639 
L 53.392571 17.777455 
L 57.008934 20.13187 
L 60.633172 19.119163 
L 64.264659 20.802108 
L 67.885592 19.831048 
L 71.503323 20.41503 
L 75.128266 21.371367 
L 78.753271 21.242227 
L 82.377322 23.304278 
L 86.002475 22.84489 
L 89.62555 25.106353 
L 93.245866 25.384422 
L 96.873736 26.271494 
L 100.493003 27.801553 
L 104.11735 27.413028 
L 107.743631 28.921862 
L 111.365328 31.292043 
L 114.98824 33.17371 
L 118.614052 35.434001 
L 122.24592 36.539185 
L 125.861169 37.784623 
L 129.477532 39.327479 
L 133.10177 41.686545 
L 136.733257 43.480617 
L 140.35419 46.566333 
L 143.971921 47.092452 
L 147.596864 51.055254 
L 151.221869 53.350642 
L 154.84592 54.720659 
L 158.471073 57.296639 
L 162.094148 60.193282 
L 165.714464 62.176114 
L 169.342334 64.357685 
L 172.961601 67.23709 
L 176.585948 68.534055 
L 180.212229 70.456565 
L 183.833926 73.327137 
L 187.456838 75.036535 
L 191.08265 76.412457 
L 194.714518 77.92587 
L 198.329767 79.368569 
L 201.94613 80.877743 
L 205.570367 83.166224 
L 209.201855 84.540516 
L 212.822788 85.275426 
L 216.440519 86.049547 
L 220.065461 87.309235 
L 223.690467 87.94251 
L 227.314518 89.030174 
L 230.939671 89.796558 
L 234.562746 90.798684 
L 238.183062 91.638227 
L 241.810932 91.794648 
L 245.430199 92.241728 
L 249.054545 92.844929 
" style="fill:none;opacity:0.6;stroke:#0000ff;stroke-linecap:square;stroke-width:2;"/>
   </g>
   <g id="line2d_11">
    <path clip-path="url(#p097bc7fb22)" d="M 46.145455 18.409618 
L 49.777322 18.596653 
L 53.392571 18.87472 
L 57.008934 19.912203 
L 60.633172 19.400243 
L 64.264659 19.706507 
L 67.885592 20.364499 
L 71.503323 20.339541 
L 75.128266 22.962624 
L 78.753271 23.483401 
L 82.377322 23.386486 
L 86.002475 24.731905 
L 89.62555 26.203468 
L 93.245866 28.137238 
L 96.873736 28.012391 
L 100.493003 29.838434 
L 104.11735 32.269183 
L 107.743631 34.897492 
L 111.365328 35.53083 
L 114.98824 37.899616 
L 118.614052 39.494127 
L 122.24592 42.070089 
L 125.861169 45.081879 
L 129.477532 47.000613 
L 133.10177 49.417018 
L 136.733257 52.223709 
L 140.35419 56.073455 
L 143.971921 58.548987 
L 147.596864 61.728934 
L 151.221869 63.97188 
L 154.84592 65.753794 
L 158.471073 69.709187 
L 162.094148 72.711534 
L 165.714464 75.341812 
L 169.342334 77.57539 
L 172.961601 79.987488 
L 176.585948 82.167836 
L 180.212229 84.194309 
L 183.833926 86.343876 
L 187.456838 88.12146 
L 191.08265 89.863574 
L 194.714518 91.081516 
L 198.329767 92.35045 
L 201.94613 93.370542 
L 205.570367 94.220172 
L 209.201855 94.936477 
L 212.822788 95.339973 
L 216.440519 95.816402 
L 220.065461 96.205701 
L 223.690467 96.43183 
L 227.314518 96.584005 
L 230.939671 96.693497 
L 234.562746 96.766227 
L 238.183062 96.80704 
L 241.810932 96.833376 
L 245.430199 96.846545 
" style="fill:none;opacity:0.6;stroke:#ee82ee;stroke-linecap:square;stroke-width:2;"/>
   </g>
   <g id="patch_3">
    <path d="M 31 100.8 
L 31 13.824 
" style="fill:none;stroke:#000000;stroke-linecap:square;stroke-linejoin:miter;stroke-width:0.8;"/>
   </g>
   <g id="patch_4">
    <path d="M 259.2 100.8 
L 259.2 13.824 
" style="fill:none;"/>
   </g>
   <g id="patch_5">
    <path d="M 36 105.8 
L 259.2 105.8 
" style="fill:none;stroke:#000000;stroke-linecap:square;stroke-linejoin:miter;stroke-width:0.8;"/>
   </g>
   <g id="patch_6">
    <path d="M 36 13.824 
L 259.2 13.824 
" style="fill:none;"/>
   </g>
   <g id="legend_1">
    <g id="line2d_12">
     <path style="fill:none;opacity:0.6;stroke:#ff0000;stroke-linecap:square;stroke-width:2;"/>
    </g>
    <g id="line2d_13"/>
    <g id="text_11">
     <text style="font-family:Arial;font-size:6px;font-style:normal;font-weight:400;text-anchor:start;" transform="rotate(-0, 317.64, 47.211488)" x="317.64" y="47.211488">CSAT</text>
    </g>
    <g id="line2d_14">
     <path style="fill:none;opacity:0.6;stroke:#0000ff;stroke-linecap:square;stroke-width:2;"/>
    </g>
    <g id="line2d_15"/>
    <g id="text_12">
     <text style="font-family:Arial;font-size:6px;font-style:normal;font-weight:400;text-anchor:start;" transform="rotate(-0, 317.64, 55.698675)" x="317.64" y="55.698675">SAT</text>
    </g>
    <g id="line2d_16">
     <path style="fill:none;opacity:0.6;stroke:#ee82ee;stroke-linecap:square;stroke-width:2;"/>
    </g>
    <g id="line2d_17"/>
    <g id="text_13">
     <text style="font-family:Arial;font-size:6px;font-style:normal;font-weight:400;text-anchor:start;" transform="rotate(-0, 317.64, 64.185863)" x="317.64" y="64.185863">SAT</text>
    </g>
   </g>
  </g>
 </g>
 <defs>
  <clipPath id="p097bc7fb22">
   <rect height="86.976" width="223.2" x="36" y="13.824"/>
  </clipPath>
 </defs>
</svg>
