<?xml version="1.0" encoding="utf-8" standalone="no"?>
<!DOCTYPE svg PUBLIC "-//W3C//DTD SVG 1.1//EN"
  "http://www.w3.org/Graphics/SVG/1.1/DTD/svg11.dtd">
<!-- Created with matplotlib (http://matplotlib.org/) -->
<svg height="144pt" version="1.1" viewBox="0 0 216 144" width="216pt" xmlns="http://www.w3.org/2000/svg" xmlns:xlink="http://www.w3.org/1999/xlink">
 <defs>
  <style type="text/css">
*{stroke-linecap:butt;stroke-linejoin:round;}
  </style>
 </defs>
 <g id="figure_1">
  <g id="patch_1">
   <path d="M 0 144 
L 216 144 
L 216 0 
L 0 0 
z
" style="fill:#ffffff;"/>
  </g>
  <g id="axes_1">
   <g id="patch_2">
    <path d="M 27 126 
L 194.4 126 
L 194.4 17.28 
L 27 17.28 
z
" style="fill:#ffffff;"/>
   </g>
   <g id="matplotlib.axis_1">
    <g id="xtick_1">
     <g id="line2d_1">
      <defs>
       <path d="M 0 0 
L 0 6 
" id="mec8b73ef09" style="stroke:#262626;"/>
      </defs>
      <g>
       <use style="fill:#262626;stroke:#262626;" x="36.722727" xlink:href="#mec8b73ef09" y="131"/>
      </g>
     </g>
     <g id="text_1">
      <text style="fill:#262626;font-family:Arial;font-size:10px;font-style:normal;font-weight:400;" transform="translate(12.524207 171.854483)rotate(-45)">no-stall</text>
     </g>
    </g>
    <g id="xtick_2">
     <g id="line2d_2">
      <g>
       <use style="fill:#262626;stroke:#262626;" x="57.859091" xlink:href="#mec8b73ef09" y="131"/>
      </g>
     </g>
     <g id="text_2">
      <text style="fill:#262626;font-family:Arial;font-size:10px;font-style:normal;font-weight:400;" transform="translate(34.057214 171.45784)rotate(-45)">7-stalls</text>
     </g>
    </g>
    <g id="xtick_3">
     <g id="line2d_3">
      <g>
       <use style="fill:#262626;stroke:#262626;" x="78.995455" xlink:href="#mec8b73ef09" y="131"/>
      </g>
     </g>
     <g id="text_3">
      <text style="fill:#262626;font-family:Arial;font-size:10px;font-style:normal;font-weight:400;" transform="translate(73.657903 152.993514)rotate(-45)">6</text>
     </g>
    </g>
    <g id="xtick_4">
     <g id="line2d_4">
      <g>
       <use style="fill:#262626;stroke:#262626;" x="100.131818" xlink:href="#mec8b73ef09" y="131"/>
      </g>
     </g>
     <g id="text_4">
      <text style="fill:#262626;font-family:Arial;font-size:10px;font-style:normal;font-weight:400;" transform="translate(90.86209 156.925691)rotate(-45)">10</text>
     </g>
    </g>
    <g id="xtick_5">
     <g id="line2d_5">
      <g>
       <use style="fill:#262626;stroke:#262626;" x="121.268182" xlink:href="#mec8b73ef09" y="131"/>
      </g>
     </g>
     <g id="text_5">
      <text style="fill:#262626;font-family:Arial;font-size:10px;font-style:normal;font-weight:400;" transform="translate(111.998454 156.925691)rotate(-45)">14</text>
     </g>
    </g>
    <g id="xtick_6">
     <g id="line2d_6">
      <g>
       <use style="fill:#262626;stroke:#262626;" x="142.404545" xlink:href="#mec8b73ef09" y="131"/>
      </g>
     </g>
     <g id="text_6">
      <text style="fill:#262626;font-family:Arial;font-size:10px;font-style:normal;font-weight:400;" transform="translate(121.143833 168.916675)rotate(-45)">6 + 10</text>
     </g>
    </g>
    <g id="xtick_7">
     <g id="line2d_7">
      <g>
       <use style="fill:#262626;stroke:#262626;" x="163.540909" xlink:href="#mec8b73ef09" y="131"/>
      </g>
     </g>
     <g id="text_7">
      <text style="fill:#262626;font-family:Arial;font-size:10px;font-style:normal;font-weight:400;" transform="translate(142.280197 168.916675)rotate(-45)">6 + 14</text>
     </g>
    </g>
    <g id="xtick_8">
     <g id="line2d_8">
      <g>
       <use style="fill:#262626;stroke:#262626;" x="184.677273" xlink:href="#mec8b73ef09" y="131"/>
      </g>
     </g>
     <g id="text_8">
      <text style="fill:#262626;font-family:Arial;font-size:10px;font-style:normal;font-weight:400;" transform="translate(159.484384 172.848852)rotate(-45)">10 + 14</text>
     </g>
    </g>
    <g id="text_9">
     <text style="fill:#262626;font-family:Arial;font-size:11px;font-style:normal;font-weight:400;text-anchor:middle;" transform="rotate(-0, 110.7, 186.12782)" x="110.7" y="186.12782">Location of stall sites</text>
    </g>
   </g>
   <g id="matplotlib.axis_2">
    <g id="ytick_1">
     <g id="line2d_9">
      <defs>
       <path d="M 0 0 
L -6 0 
" id="m3d51dfcd64" style="stroke:#262626;"/>
      </defs>
      <g>
       <use style="fill:#262626;stroke:#262626;" x="22" xlink:href="#m3d51dfcd64" y="116.94"/>
      </g>
     </g>
     <g id="text_10">
      <text style="fill:#262626;font-family:Arial;font-size:10px;font-style:normal;font-weight:400;text-anchor:end;" transform="rotate(-0, 9, 120.518906)" x="9" y="120.518906">0.00</text>
     </g>
    </g>
    <g id="ytick_2">
     <g id="line2d_10">
      <g>
       <use style="fill:#262626;stroke:#262626;" x="22" xlink:href="#m3d51dfcd64" y="94.29"/>
      </g>
     </g>
     <g id="text_11">
      <text style="fill:#262626;font-family:Arial;font-size:10px;font-style:normal;font-weight:400;text-anchor:end;" transform="rotate(-0, 9, 97.868906)" x="9" y="97.868906">0.25</text>
     </g>
    </g>
    <g id="ytick_3">
     <g id="line2d_11">
      <g>
       <use style="fill:#262626;stroke:#262626;" x="22" xlink:href="#m3d51dfcd64" y="71.64"/>
      </g>
     </g>
     <g id="text_12">
      <text style="fill:#262626;font-family:Arial;font-size:10px;font-style:normal;font-weight:400;text-anchor:end;" transform="rotate(-0, 9, 75.218906)" x="9" y="75.218906">0.50</text>
     </g>
    </g>
    <g id="ytick_4">
     <g id="line2d_12">
      <g>
       <use style="fill:#262626;stroke:#262626;" x="22" xlink:href="#m3d51dfcd64" y="48.99"/>
      </g>
     </g>
     <g id="text_13">
      <text style="fill:#262626;font-family:Arial;font-size:10px;font-style:normal;font-weight:400;text-anchor:end;" transform="rotate(-0, 9, 52.568906)" x="9" y="52.568906">0.75</text>
     </g>
    </g>
    <g id="ytick_5">
     <g id="line2d_13">
      <g>
       <use style="fill:#262626;stroke:#262626;" x="22" xlink:href="#m3d51dfcd64" y="26.34"/>
      </g>
     </g>
     <g id="text_14">
      <text style="fill:#262626;font-family:Arial;font-size:10px;font-style:normal;font-weight:400;text-anchor:end;" transform="rotate(-0, 9, 29.918906)" x="9" y="29.918906">1.00</text>
     </g>
    </g>
    <g id="text_15">
     <text style="fill:#262626;font-family:Arial;font-size:11px;font-style:normal;font-weight:400;" transform="translate(-28.700437 132.157187)rotate(-90)">YFP synthesis rate (a.u.)</text>
     <text style="fill:#262626;font-family:Arial;font-size:11px;font-style:normal;font-weight:400;" transform="translate(-16.776094 94.868047)rotate(-90)">(Leu rich)</text>
    </g>
   </g>
   <g id="LineCollection_1">
    <path clip-path="url(#pedddf0a65b)" d="M 34.609091 36.05525 
L 34.609091 33.119503 
" style="fill:none;stroke:#000000;"/>
    <path clip-path="url(#pedddf0a65b)" d="M 55.745455 35.911932 
L 55.745455 33.813225 
" style="fill:none;stroke:#000000;"/>
    <path clip-path="url(#pedddf0a65b)" d="M 76.881818 37.917652 
L 76.881818 34.828028 
" style="fill:none;stroke:#000000;"/>
    <path clip-path="url(#pedddf0a65b)" d="M 98.018182 32.429987 
L 98.018182 29.47285 
" style="fill:none;stroke:#000000;"/>
    <path clip-path="url(#pedddf0a65b)" d="M 119.154545 33.006226 
L 119.154545 30.348216 
" style="fill:none;stroke:#000000;"/>
    <path clip-path="url(#pedddf0a65b)" d="M 140.290909 33.86583 
L 140.290909 30.083052 
" style="fill:none;stroke:#000000;"/>
    <path clip-path="url(#pedddf0a65b)" d="M 161.427273 26.901012 
L 161.427273 25.778988 
" style="fill:none;stroke:#000000;"/>
    <path clip-path="url(#pedddf0a65b)" d="M 182.563636 29.30493 
L 182.563636 27.11915 
" style="fill:none;stroke:#000000;"/>
   </g>
   <g id="LineCollection_2">
    <path clip-path="url(#pedddf0a65b)" d="M 38.836364 98.991054 
L 38.836364 97.180974 
" style="fill:none;stroke:#008000;"/>
    <path clip-path="url(#pedddf0a65b)" d="M 59.972727 99.37079 
L 59.972727 98.999416 
" style="fill:none;stroke:#008000;"/>
    <path clip-path="url(#pedddf0a65b)" d="M 81.109091 97.714222 
L 81.109091 97.115362 
" style="fill:none;stroke:#008000;"/>
    <path clip-path="url(#pedddf0a65b)" d="M 102.245455 100.014286 
L 102.245455 97.959759 
" style="fill:none;stroke:#008000;"/>
    <path clip-path="url(#pedddf0a65b)" d="M 123.381818 97.544971 
L 123.381818 96.863906 
" style="fill:none;stroke:#008000;"/>
    <path clip-path="url(#pedddf0a65b)" d="M 144.518182 98.346034 
L 144.518182 96.588394 
" style="fill:none;stroke:#008000;"/>
    <path clip-path="url(#pedddf0a65b)" d="M 165.654545 96.716218 
L 165.654545 95.828651 
" style="fill:none;stroke:#008000;"/>
    <path clip-path="url(#pedddf0a65b)" d="M 186.790909 97.357548 
L 186.790909 96.688355 
" style="fill:none;stroke:#008000;"/>
   </g>
   <g id="line2d_14">
    <defs>
     <path d="M 10 0 
L -10 -0 
" id="m96f78339c2"/>
    </defs>
    <g clip-path="url(#pedddf0a65b)">
     <use x="34.609091" xlink:href="#m96f78339c2" y="36.05525"/>
     <use x="55.745455" xlink:href="#m96f78339c2" y="35.911932"/>
     <use x="76.881818" xlink:href="#m96f78339c2" y="37.917652"/>
     <use x="98.018182" xlink:href="#m96f78339c2" y="32.429987"/>
     <use x="119.154545" xlink:href="#m96f78339c2" y="33.006226"/>
     <use x="140.290909" xlink:href="#m96f78339c2" y="33.86583"/>
     <use x="161.427273" xlink:href="#m96f78339c2" y="26.901012"/>
     <use x="182.563636" xlink:href="#m96f78339c2" y="29.30493"/>
    </g>
   </g>
   <g id="line2d_15">
    <g clip-path="url(#pedddf0a65b)">
     <use x="34.609091" xlink:href="#m96f78339c2" y="33.119503"/>
     <use x="55.745455" xlink:href="#m96f78339c2" y="33.813225"/>
     <use x="76.881818" xlink:href="#m96f78339c2" y="34.828028"/>
     <use x="98.018182" xlink:href="#m96f78339c2" y="29.47285"/>
     <use x="119.154545" xlink:href="#m96f78339c2" y="30.348216"/>
     <use x="140.290909" xlink:href="#m96f78339c2" y="30.083052"/>
     <use x="161.427273" xlink:href="#m96f78339c2" y="25.778988"/>
     <use x="182.563636" xlink:href="#m96f78339c2" y="27.11915"/>
    </g>
   </g>
   <g id="line2d_16">
    <defs>
     <path d="M 10 0 
L -10 -0 
" id="me2c282f76d"/>
    </defs>
    <g clip-path="url(#pedddf0a65b)">
     <use style="fill:#008000;" x="38.836364" xlink:href="#me2c282f76d" y="98.991054"/>
     <use style="fill:#008000;" x="59.972727" xlink:href="#me2c282f76d" y="99.37079"/>
     <use style="fill:#008000;" x="81.109091" xlink:href="#me2c282f76d" y="97.714222"/>
     <use style="fill:#008000;" x="102.245455" xlink:href="#me2c282f76d" y="100.014286"/>
     <use style="fill:#008000;" x="123.381818" xlink:href="#me2c282f76d" y="97.544971"/>
     <use style="fill:#008000;" x="144.518182" xlink:href="#me2c282f76d" y="98.346034"/>
     <use style="fill:#008000;" x="165.654545" xlink:href="#me2c282f76d" y="96.716218"/>
     <use style="fill:#008000;" x="186.790909" xlink:href="#me2c282f76d" y="97.357548"/>
    </g>
   </g>
   <g id="line2d_17">
    <g clip-path="url(#pedddf0a65b)">
     <use style="fill:#008000;" x="38.836364" xlink:href="#me2c282f76d" y="97.180974"/>
     <use style="fill:#008000;" x="59.972727" xlink:href="#me2c282f76d" y="98.999416"/>
     <use style="fill:#008000;" x="81.109091" xlink:href="#me2c282f76d" y="97.115362"/>
     <use style="fill:#008000;" x="102.245455" xlink:href="#me2c282f76d" y="97.959759"/>
     <use style="fill:#008000;" x="123.381818" xlink:href="#me2c282f76d" y="96.863906"/>
     <use style="fill:#008000;" x="144.518182" xlink:href="#me2c282f76d" y="96.588394"/>
     <use style="fill:#008000;" x="165.654545" xlink:href="#me2c282f76d" y="95.828651"/>
     <use style="fill:#008000;" x="186.790909" xlink:href="#me2c282f76d" y="96.688355"/>
    </g>
   </g>
   <g id="line2d_18">
    <defs>
     <path d="M 0 -2 
L -2 2 
L 2 2 
z
" id="m6fe467eebc"/>
    </defs>
    <g clip-path="url(#pedddf0a65b)">
     <use x="34.609091" xlink:href="#m6fe467eebc" y="34.587376"/>
     <use x="55.745455" xlink:href="#m6fe467eebc" y="34.862579"/>
     <use x="76.881818" xlink:href="#m6fe467eebc" y="36.37284"/>
     <use x="98.018182" xlink:href="#m6fe467eebc" y="30.951419"/>
     <use x="119.154545" xlink:href="#m6fe467eebc" y="31.677221"/>
     <use x="140.290909" xlink:href="#m6fe467eebc" y="31.974441"/>
     <use x="161.427273" xlink:href="#m6fe467eebc" y="26.34"/>
     <use x="182.563636" xlink:href="#m6fe467eebc" y="28.21204"/>
    </g>
   </g>
   <g id="line2d_19">
    <defs>
     <path d="M 0 2 
C 0.530406 2 1.03916 1.789267 1.414214 1.414214 
C 1.789267 1.03916 2 0.530406 2 0 
C 2 -0.530406 1.789267 -1.03916 1.414214 -1.414214 
C 1.03916 -1.789267 0.530406 -2 0 -2 
C -0.530406 -2 -1.03916 -1.789267 -1.414214 -1.414214 
C -1.789267 -1.03916 -2 -0.530406 -2 0 
C -2 0.530406 -1.789267 1.03916 -1.414214 1.414214 
C -1.03916 1.789267 -0.530406 2 0 2 
z
" id="ma1c5d525c6"/>
    </defs>
    <g clip-path="url(#pedddf0a65b)">
     <use style="fill:#008000;" x="38.836364" xlink:href="#ma1c5d525c6" y="98.086014"/>
     <use style="fill:#008000;" x="59.972727" xlink:href="#ma1c5d525c6" y="99.185103"/>
     <use style="fill:#008000;" x="81.109091" xlink:href="#ma1c5d525c6" y="97.414792"/>
     <use style="fill:#008000;" x="102.245455" xlink:href="#ma1c5d525c6" y="98.987022"/>
     <use style="fill:#008000;" x="123.381818" xlink:href="#ma1c5d525c6" y="97.204439"/>
     <use style="fill:#008000;" x="144.518182" xlink:href="#ma1c5d525c6" y="97.467214"/>
     <use style="fill:#008000;" x="165.654545" xlink:href="#ma1c5d525c6" y="96.272435"/>
     <use style="fill:#008000;" x="186.790909" xlink:href="#ma1c5d525c6" y="97.022952"/>
    </g>
   </g>
   <g id="patch_3">
    <path d="M 22 126 
L 22 17.28 
" style="fill:none;stroke:#262626;stroke-linecap:square;stroke-linejoin:miter;stroke-width:1.25;"/>
   </g>
   <g id="patch_4">
    <path d="M 27 131 
L 194.4 131 
" style="fill:none;stroke:#262626;stroke-linecap:square;stroke-linejoin:miter;stroke-width:1.25;"/>
   </g>
   <g id="legend_1">
    <g id="LineCollection_3">
     <path style="fill:none;stroke:#000000;"/>
    </g>
    <g id="line2d_20">
     <g>
      <use x="237.88" xlink:href="#m96f78339c2" y="30.937813"/>
     </g>
    </g>
    <g id="line2d_21">
     <g>
      <use x="237.88" xlink:href="#m96f78339c2" y="20.937813"/>
     </g>
    </g>
    <g id="line2d_22"/>
    <g id="line2d_23">
     <defs>
      <path d="M 0 -1.6 
L -1.6 1.6 
L 1.6 1.6 
z
" id="m6889c4b538"/>
     </defs>
     <g>
      <use x="237.88" xlink:href="#m6889c4b538" y="25.937813"/>
     </g>
    </g>
    <g id="text_16">
     <text style="fill:#262626;font-family:Arial;font-size:10px;font-style:normal;font-weight:400;text-anchor:start;" transform="rotate(-0, 250.88, 29.437813)" x="250.88" y="29.437813">plasmid</text>
    </g>
    <g id="LineCollection_4">
     <path style="fill:none;stroke:#008000;"/>
    </g>
    <g id="line2d_24">
     <g>
      <use style="fill:#008000;" x="237.88" xlink:href="#me2c282f76d" y="45.083125"/>
     </g>
    </g>
    <g id="line2d_25">
     <g>
      <use style="fill:#008000;" x="237.88" xlink:href="#me2c282f76d" y="35.083125"/>
     </g>
    </g>
    <g id="line2d_26"/>
    <g id="line2d_27">
     <defs>
      <path d="M 0 1.6 
C 0.424325 1.6 0.831328 1.431414 1.131371 1.131371 
C 1.431414 0.831328 1.6 0.424325 1.6 0 
C 1.6 -0.424325 1.431414 -0.831328 1.131371 -1.131371 
C 0.831328 -1.431414 0.424325 -1.6 0 -1.6 
C -0.424325 -1.6 -0.831328 -1.431414 -1.131371 -1.131371 
C -1.431414 -0.831328 -1.6 -0.424325 -1.6 0 
C -1.6 0.424325 -1.431414 0.831328 -1.131371 1.131371 
C -0.831328 1.431414 -0.424325 1.6 0 1.6 
z
" id="ma03cadc301"/>
     </defs>
     <g>
      <use style="fill:#008000;" x="237.88" xlink:href="#ma03cadc301" y="40.083125"/>
     </g>
    </g>
    <g id="text_17">
     <text style="fill:#262626;font-family:Arial;font-size:10px;font-style:normal;font-weight:400;text-anchor:start;" transform="rotate(-0, 250.88, 43.583125)" x="250.88" y="43.583125">chromosome</text>
    </g>
   </g>
  </g>
 </g>
 <defs>
  <clipPath id="pedddf0a65b">
   <rect height="108.72" width="167.4" x="27" y="17.28"/>
  </clipPath>
 </defs>
</svg>
